<svg width="35" height="30" viewBox="0 0 55 30" fill="none" xmlns="http://www.w3.org/2000/svg">
<path d="M54.9982 27.253C55.0065 27.7896 54.85 28.316 54.5494 28.7627C54.2488 29.2093 53.8183 29.5552 53.3148 29.7547C51.9888 30.3393 50.9101 29.8159 49.9413 28.8506C46.1486 25.08 42.3376 21.323 38.5083 17.5795C35.4645 14.5408 32.3245 11.5565 29.3632 8.42268C27.9135 6.86594 27.1165 6.92033 25.6392 8.42268C19.1051 15.0711 12.4267 21.5835 5.79635 28.1368C4.92376 29.0001 4.15423 30.0538 2.68388 29.979C2.16586 29.9654 1.66281 29.8043 1.23504 29.5149C0.807281 29.2255 0.472974 28.8202 0.272222 28.3475C0.0139842 27.8343 -0.0633971 27.2505 0.0523884 26.6887C0.168174 26.127 0.470476 25.6198 0.911208 25.2476C9.05998 17.1581 17.2225 9.08208 25.3988 1.01969C26.7729 -0.339899 28.2639 -0.339899 29.6312 1.01969C37.8029 9.08661 45.9631 17.1671 54.1119 25.2612C54.4025 25.5051 54.6333 25.8111 54.7868 26.1562C54.9404 26.5012 55.0126 26.8763 54.9982 27.253V27.253Z" fill="#494346"/>
</svg>
