<svg xmlns="http://www.w3.org/2000/svg" viewBox="0 0 44.13 80.05"><defs><style>.cls-1{fill:#121313;}.cls-2{fill:#fff;}</style></defs><title>Asset 1</title><g id="Layer_2" data-name="Layer 2"><g id="Layer_1-2" data-name="Layer 1"><g id="Layer_2-2" data-name="Layer 2"><g id="Layer_2-2-2" data-name="Layer 2-2"><path class="cls-1" d="M40.09,0a3.9,3.9,0,0,1,3.68,2.45c.86,1.93.09,3.5-1.33,4.91Q34.12,15.64,25.86,24C21.39,28.43,17,33,12.39,37.31c-2.29,2.11-2.21,3.27,0,5.42,9.78,9.51,19.36,19.23,29,28.88,1.27,1.27,2.82,2.39,2.71,4.53a3.92,3.92,0,0,1-2.4,3.51,3.78,3.78,0,0,1-4.56-.93Q19.29,60.93,1.5,43.08c-2-2-2-4.17,0-6.16Q19.3,19.08,37.16,1.29A3.66,3.66,0,0,1,40.09,0Z"/><path class="cls-2" d="M40.09,0a3.9,3.9,0,0,1,3.68,2.45c.86,1.93.09,3.5-1.33,4.91Q34.12,15.64,25.86,24C21.39,28.43,17,33,12.39,37.31c-2.29,2.11-2.21,3.27,0,5.42,9.78,9.51,19.36,19.23,29,28.88,1.27,1.27,2.82,2.39,2.71,4.53a3.92,3.92,0,0,1-2.4,3.51,3.78,3.78,0,0,1-4.56-.93Q19.29,60.93,1.5,43.08c-2-2-2-4.17,0-6.16Q19.3,19.08,37.16,1.29A3.66,3.66,0,0,1,40.09,0Z"/></g></g></g></g></svg>