<svg width="1440" height="900" viewBox="0 0 1440 900" fill="none" xmlns="http://www.w3.org/2000/svg">
<g clip-path="url(#clip0)">
<rect width="1440" height="900" fill="white"/>
<rect width="1440" height="900" fill="#E6E7E9"/>
<path fill-rule="evenodd" clip-rule="evenodd" d="M716.612 721.176C718.802 721.964 721.198 721.964 723.387 721.176L1440 463.162V0H0V463.162L716.612 721.176Z" fill="#FDC53F" fill-opacity="0.49"/>
<path d="M454.225 257.665C475.439 239.447 508.416 251.314 513.158 278.871L568.68 601.544C573.359 628.733 546.971 650.864 521.012 641.523L217.096 532.16C191.137 522.819 184.902 488.949 205.832 470.975L454.225 257.665Z" fill="#FDC53F" fill-opacity="0.45"/>
<path d="M543.227 326.27C564.529 307.401 598.27 319.542 602.665 347.658L647.849 636.705C652.072 663.721 625.821 685.397 600.092 676.138L335.909 581.073C310.18 571.815 303.759 538.382 324.228 520.251L543.227 326.27Z" fill="#FDC53F" fill-opacity="0.45"/>
<path d="M329.925 187.414C351.089 169.523 383.684 181.252 388.596 208.526L453.677 569.907C458.589 597.182 432.134 619.545 406.058 610.162L60.552 485.833C34.4761 476.45 28.3363 442.357 49.5005 424.467L329.925 187.414Z" fill="#FDC53F" fill-opacity="0.45"/>
<path d="M974.775 257.665C953.562 239.447 920.584 251.314 915.843 278.871L860.32 601.544C855.642 628.733 882.029 650.864 907.988 641.523L1211.9 532.16C1237.86 522.819 1244.1 488.949 1223.17 470.975L974.775 257.665Z" fill="#FDC53F" fill-opacity="0.45"/>
<path d="M885.773 326.27C864.47 307.401 830.73 319.542 826.335 347.658L781.151 636.705C776.927 663.721 803.179 685.397 828.908 676.138L1093.09 581.073C1118.82 571.815 1125.24 538.382 1104.77 520.251L885.773 326.27Z" fill="#FDC53F" fill-opacity="0.45"/>
<path d="M752.971 348.297C739.558 323.199 703.701 322.852 689.805 347.686L546.946 602.991C533.594 626.854 550.671 656.304 578.014 656.569L858.768 659.284C886.111 659.548 903.755 630.433 890.866 606.317L752.971 348.297Z" fill="#FDC53F" fill-opacity="0.44"/>
<path d="M1099.08 187.414C1077.91 169.523 1045.32 181.252 1040.4 208.526L975.323 569.907C970.411 597.182 996.866 619.545 1022.94 610.162L1368.45 485.833C1394.52 476.45 1400.66 442.357 1379.5 424.467L1099.08 187.414Z" fill="#FDC53F" fill-opacity="0.45"/>
</g>
<defs>
<clipPath id="clip0">
<rect width="1440" height="900" fill="white"/>
</clipPath>
</defs>
</svg>
